<svg xmlns="http://www.w3.org/2000/svg" xmlns:xlink="http://www.w3.org/1999/xlink" width="500" zoomAndPan="magnify" viewBox="0 0 375 374.999991" height="500" preserveAspectRatio="xMidYMid meet" version="1.0"><defs><clipPath id="id1"><path d="M 23.167969 10.5625 L 347.167969 10.5625 L 347.167969 359.3125 L 23.167969 359.3125 Z M 23.167969 10.5625 " clip-rule="nonzero"/></clipPath></defs><g clip-path="url(#id1)"><path fill="#ffffff" d="M 160.300781 10.5625 L 35.613281 10.5625 C 28.800781 10.5625 23.203125 16.15625 23.152344 22.96875 L 23.152344 234.804688 C 23.152344 241.617188 28.800781 247.261719 35.613281 247.261719 C 35.660156 247.261719 35.660156 247.261719 35.660156 247.261719 L 147.792969 247.261719 L 147.792969 346.90625 C 147.839844 353.765625 153.4375 359.3125 160.300781 359.3125 L 334.675781 359.3125 C 341.539062 359.3125 347.035156 353.765625 347.085938 346.90625 L 347.085938 184.886719 C 347.085938 181.628906 345.820312 178.464844 343.53125 176.128906 L 293.648438 126.308594 C 291.3125 123.972656 288.148438 122.609375 284.792969 122.609375 L 222.59375 122.609375 L 222.59375 72.789062 C 222.546875 69.53125 221.230469 66.367188 218.894531 64.082031 L 169.058594 14.210938 C 166.722656 11.921875 163.558594 10.609375 160.300781 10.5625 Z M 48.121094 35.519531 L 135.382812 35.519531 L 135.382812 85.34375 C 135.429688 92.152344 140.929688 97.699219 147.792969 97.699219 L 197.628906 97.699219 L 197.628906 222.351562 L 48.121094 222.351562 Z M 160.203125 40.628906 L 192.46875 72.789062 L 160.203125 72.789062 Z M 222.59375 147.570312 L 259.875 147.570312 L 259.875 197.390625 C 259.921875 204.25 265.519531 209.796875 272.429688 209.796875 L 322.265625 209.796875 L 322.265625 334.402344 L 172.710938 334.402344 L 172.710938 247.261719 L 210.039062 247.261719 C 210.039062 247.261719 210.085938 247.261719 210.136719 247.261719 C 216.949219 247.261719 222.59375 241.617188 222.59375 234.804688 Z M 284.792969 152.679688 L 317.105469 184.984375 L 284.792969 184.984375 L 284.792969 152.679688 " fill-opacity="1" fill-rule="evenodd"/></g></svg>