<svg xmlns="http://www.w3.org/2000/svg" xmlns:xlink="http://www.w3.org/1999/xlink" width="500" zoomAndPan="magnify" viewBox="0 0 375 374.999991" height="500" preserveAspectRatio="xMidYMid meet" version="1.0"><path fill="#ffffff" d="M 302.644531 4.894531 C 297.972656 0.222656 289.699219 0.222656 285.027344 4.894531 L 31.308594 258.628906 C 31.296875 258.640625 31.285156 258.652344 31.273438 258.664062 L 31.234375 258.699219 C 31.214844 258.722656 31.210938 258.75 31.191406 258.769531 C 30.179688 259.789062 29.421875 261.023438 28.8125 262.351562 C 28.664062 262.675781 28.523438 262.980469 28.402344 263.3125 C 28.296875 263.609375 28.121094 263.867188 28.035156 264.175781 L 1.695312 359.207031 C 0.503906 363.539062 1.71875 368.175781 4.894531 371.351562 C 7.269531 373.722656 10.445312 375 13.703125 375 C 14.8125 375 15.929688 374.855469 17.039062 374.550781 L 112.070312 348.210938 C 112.378906 348.125 112.636719 347.949219 112.933594 347.84375 C 113.265625 347.722656 113.570312 347.582031 113.894531 347.433594 C 115.222656 346.824219 116.453125 346.066406 117.476562 345.054688 C 117.496094 345.035156 117.523438 345.03125 117.546875 345.007812 L 117.582031 344.972656 C 117.59375 344.960938 117.605469 344.949219 117.617188 344.9375 L 371.351562 91.21875 C 373.6875 88.882812 375 85.710938 375 82.410156 C 375 79.105469 373.6875 75.9375 371.351562 73.601562 Z M 251.339844 73.820312 L 302.425781 124.90625 L 108.738281 318.585938 L 57.660156 267.507812 Z M 31.589844 344.65625 L 46.347656 291.429688 L 84.816406 329.898438 Z M 320.042969 107.289062 L 268.957031 56.203125 L 293.835938 31.320312 L 344.925781 82.410156 Z M 320.042969 107.289062 " fill-opacity="1" fill-rule="nonzero"/></svg>