<svg xmlns="http://www.w3.org/2000/svg" xmlns:xlink="http://www.w3.org/1999/xlink" width="500" zoomAndPan="magnify" viewBox="0 0 375 374.999991" height="500" preserveAspectRatio="xMidYMid meet" version="1.0"><defs><clipPath id="id1"><path d="M 20.164062 20.164062 L 353.910156 20.164062 L 353.910156 353.910156 L 20.164062 353.910156 Z M 20.164062 20.164062 " clip-rule="nonzero"/></clipPath><clipPath id="id2"><path d="M 112.5 109.867188 L 150 109.867188 L 150 147.367188 L 112.5 147.367188 Z M 112.5 109.867188 " clip-rule="nonzero"/></clipPath><clipPath id="id3"><path d="M 112.5 208.359375 L 262.5 208.359375 L 262.5 290.109375 L 112.5 290.109375 Z M 112.5 208.359375 " clip-rule="nonzero"/></clipPath><clipPath id="id4"><path d="M 225 109.867188 L 262.5 109.867188 L 262.5 147.367188 L 225 147.367188 Z M 225 109.867188 " clip-rule="nonzero"/></clipPath></defs><g clip-path="url(#id1)"><path fill="#d9d9d9" d="M 187.039062 353.910156 C 142.484375 353.910156 100.53125 336.570312 69.050781 305.023438 C 37.503906 273.542969 20.164062 231.589844 20.164062 187.039062 C 20.164062 142.484375 37.503906 100.53125 69.050781 69.050781 C 100.53125 37.503906 142.484375 20.164062 187.039062 20.164062 C 231.589844 20.164062 273.542969 37.503906 305.023438 69.050781 C 336.570312 100.601562 353.910156 142.484375 353.910156 187.039062 C 353.910156 231.589844 336.570312 273.542969 305.023438 305.023438 C 273.542969 336.570312 231.589844 353.910156 187.039062 353.910156 Z M 187.039062 30.167969 C 145.152344 30.167969 105.734375 46.507812 76.121094 76.121094 C 46.507812 105.734375 30.167969 145.152344 30.167969 187.039062 C 30.167969 228.921875 46.507812 268.339844 76.121094 297.953125 C 105.734375 327.566406 145.152344 343.90625 187.039062 343.90625 C 228.921875 343.90625 268.339844 327.566406 297.953125 297.953125 C 327.566406 268.339844 343.90625 228.921875 343.90625 187.039062 C 343.90625 145.152344 327.566406 105.734375 297.953125 76.121094 C 268.339844 46.507812 228.921875 30.167969 187.039062 30.167969 Z M 187.039062 30.167969 " fill-opacity="1" fill-rule="nonzero"/></g><g clip-path="url(#id2)"><path fill="#d9d9d9" d="M 150 128.617188 C 150 129.234375 149.96875 129.84375 149.910156 130.457031 C 149.847656 131.066406 149.757812 131.675781 149.640625 132.277344 C 149.519531 132.878906 149.371094 133.472656 149.191406 134.0625 C 149.015625 134.648438 148.808594 135.226562 148.574219 135.792969 C 148.335938 136.359375 148.074219 136.914062 147.785156 137.457031 C 147.496094 138 147.179688 138.523438 146.839844 139.035156 C 146.5 139.546875 146.132812 140.039062 145.742188 140.511719 C 145.355469 140.988281 144.941406 141.441406 144.507812 141.875 C 144.074219 142.3125 143.621094 142.722656 143.144531 143.113281 C 142.671875 143.5 142.175781 143.867188 141.667969 144.207031 C 141.15625 144.550781 140.628906 144.863281 140.089844 145.15625 C 139.546875 145.445312 138.992188 145.707031 138.425781 145.941406 C 137.859375 146.175781 137.28125 146.382812 136.691406 146.5625 C 136.105469 146.738281 135.511719 146.886719 134.90625 147.007812 C 134.304688 147.128906 133.699219 147.21875 133.085938 147.277344 C 132.476562 147.339844 131.863281 147.367188 131.25 147.367188 C 130.636719 147.367188 130.023438 147.339844 129.414062 147.277344 C 128.800781 147.21875 128.195312 147.128906 127.59375 147.007812 C 126.988281 146.886719 126.394531 146.738281 125.808594 146.5625 C 125.21875 146.382812 124.640625 146.175781 124.074219 145.941406 C 123.507812 145.707031 122.953125 145.445312 122.410156 145.15625 C 121.871094 144.863281 121.34375 144.550781 120.832031 144.207031 C 120.324219 143.867188 119.828125 143.5 119.355469 143.113281 C 118.878906 142.722656 118.425781 142.3125 117.992188 141.875 C 117.558594 141.441406 117.144531 140.988281 116.757812 140.511719 C 116.367188 140.039062 116 139.546875 115.660156 139.035156 C 115.320312 138.523438 115.003906 138 114.714844 137.457031 C 114.425781 136.914062 114.164062 136.359375 113.925781 135.792969 C 113.691406 135.226562 113.484375 134.648438 113.308594 134.0625 C 113.128906 133.472656 112.980469 132.878906 112.859375 132.277344 C 112.742188 131.675781 112.652344 131.066406 112.589844 130.457031 C 112.53125 129.84375 112.5 129.234375 112.5 128.617188 C 112.5 128.003906 112.53125 127.390625 112.589844 126.78125 C 112.652344 126.167969 112.742188 125.5625 112.859375 124.960938 C 112.980469 124.359375 113.128906 123.761719 113.308594 123.175781 C 113.484375 122.589844 113.691406 122.011719 113.925781 121.441406 C 114.164062 120.875 114.425781 120.320312 114.714844 119.78125 C 115.003906 119.238281 115.320312 118.710938 115.660156 118.203125 C 116 117.691406 116.367188 117.199219 116.757812 116.722656 C 117.144531 116.25 117.558594 115.792969 117.992188 115.359375 C 118.425781 114.925781 118.878906 114.515625 119.355469 114.125 C 119.828125 113.734375 120.324219 113.371094 120.832031 113.027344 C 121.34375 112.6875 121.871094 112.371094 122.410156 112.082031 C 122.953125 111.792969 123.507812 111.53125 124.074219 111.296875 C 124.640625 111.0625 125.21875 110.855469 125.808594 110.675781 C 126.394531 110.496094 126.988281 110.347656 127.59375 110.230469 C 128.195312 110.109375 128.800781 110.019531 129.414062 109.957031 C 130.023438 109.898438 130.636719 109.867188 131.25 109.867188 C 131.863281 109.867188 132.476562 109.898438 133.085938 109.957031 C 133.699219 110.019531 134.304688 110.109375 134.90625 110.230469 C 135.511719 110.347656 136.105469 110.496094 136.691406 110.675781 C 137.28125 110.855469 137.859375 111.0625 138.425781 111.296875 C 138.992188 111.53125 139.546875 111.792969 140.089844 112.082031 C 140.628906 112.371094 141.15625 112.6875 141.667969 113.027344 C 142.175781 113.371094 142.671875 113.734375 143.144531 114.125 C 143.621094 114.515625 144.074219 114.925781 144.507812 115.359375 C 144.941406 115.792969 145.355469 116.25 145.742188 116.722656 C 146.132812 117.199219 146.5 117.691406 146.839844 118.203125 C 147.179688 118.710938 147.496094 119.238281 147.785156 119.78125 C 148.074219 120.320312 148.335938 120.875 148.574219 121.441406 C 148.808594 122.011719 149.015625 122.589844 149.191406 123.175781 C 149.371094 123.761719 149.519531 124.359375 149.640625 124.960938 C 149.757812 125.5625 149.847656 126.167969 149.910156 126.78125 C 149.96875 127.390625 150 128.003906 150 128.617188 Z M 150 128.617188 " fill-opacity="1" fill-rule="nonzero"/></g><g clip-path="url(#id3)"><path fill="#d9d9d9" d="M 119.320312 208.363281 C 123.003906 208.363281 125.992188 211.355469 125.992188 215.050781 C 125.992188 249.058594 153.589844 276.726562 187.511719 276.726562 C 221.433594 276.726562 249.03125 249.058594 249.03125 215.050781 C 249.03125 211.355469 252.019531 208.363281 255.703125 208.363281 C 259.386719 208.363281 262.375 211.355469 262.375 215.050781 C 262.375 256.433594 228.789062 290.101562 187.511719 290.101562 C 146.234375 290.101562 112.652344 256.433594 112.652344 215.046875 C 112.652344 211.355469 115.636719 208.363281 119.320312 208.363281 Z M 119.320312 208.363281 " fill-opacity="1" fill-rule="nonzero"/></g><g clip-path="url(#id4)"><path fill="#d9d9d9" d="M 262.5 128.617188 C 262.5 129.234375 262.46875 129.84375 262.410156 130.457031 C 262.347656 131.066406 262.257812 131.675781 262.140625 132.277344 C 262.019531 132.878906 261.871094 133.472656 261.691406 134.0625 C 261.515625 134.648438 261.308594 135.226562 261.074219 135.792969 C 260.835938 136.359375 260.574219 136.914062 260.285156 137.457031 C 259.996094 138 259.679688 138.523438 259.339844 139.035156 C 259 139.546875 258.632812 140.039062 258.242188 140.511719 C 257.855469 140.988281 257.441406 141.441406 257.007812 141.875 C 256.574219 142.3125 256.121094 142.722656 255.644531 143.113281 C 255.171875 143.5 254.675781 143.867188 254.167969 144.207031 C 253.65625 144.550781 253.128906 144.863281 252.589844 145.15625 C 252.046875 145.445312 251.492188 145.707031 250.925781 145.941406 C 250.359375 146.175781 249.78125 146.382812 249.191406 146.5625 C 248.605469 146.738281 248.011719 146.886719 247.40625 147.007812 C 246.804688 147.128906 246.199219 147.21875 245.585938 147.277344 C 244.976562 147.339844 244.363281 147.367188 243.75 147.367188 C 243.136719 147.367188 242.523438 147.339844 241.914062 147.277344 C 241.300781 147.21875 240.695312 147.128906 240.09375 147.007812 C 239.488281 146.886719 238.894531 146.738281 238.308594 146.5625 C 237.71875 146.382812 237.140625 146.175781 236.574219 145.941406 C 236.007812 145.707031 235.453125 145.445312 234.910156 145.15625 C 234.371094 144.863281 233.84375 144.550781 233.332031 144.207031 C 232.824219 143.867188 232.328125 143.5 231.855469 143.113281 C 231.378906 142.722656 230.925781 142.3125 230.492188 141.875 C 230.058594 141.441406 229.644531 140.988281 229.257812 140.511719 C 228.867188 140.039062 228.5 139.546875 228.160156 139.035156 C 227.820312 138.523438 227.503906 138 227.214844 137.457031 C 226.925781 136.914062 226.664062 136.359375 226.425781 135.792969 C 226.191406 135.226562 225.984375 134.648438 225.808594 134.0625 C 225.628906 133.472656 225.480469 132.878906 225.359375 132.277344 C 225.242188 131.675781 225.152344 131.066406 225.089844 130.457031 C 225.03125 129.84375 225 129.234375 225 128.617188 C 225 128.003906 225.03125 127.390625 225.089844 126.78125 C 225.152344 126.167969 225.242188 125.5625 225.359375 124.960938 C 225.480469 124.359375 225.628906 123.761719 225.808594 123.175781 C 225.984375 122.589844 226.191406 122.011719 226.425781 121.441406 C 226.664062 120.875 226.925781 120.320312 227.214844 119.78125 C 227.503906 119.238281 227.820312 118.710938 228.160156 118.203125 C 228.5 117.691406 228.867188 117.199219 229.257812 116.722656 C 229.644531 116.25 230.058594 115.792969 230.492188 115.359375 C 230.925781 114.925781 231.378906 114.515625 231.855469 114.125 C 232.328125 113.734375 232.824219 113.371094 233.332031 113.027344 C 233.84375 112.6875 234.371094 112.371094 234.910156 112.082031 C 235.453125 111.792969 236.007812 111.53125 236.574219 111.296875 C 237.140625 111.0625 237.71875 110.855469 238.308594 110.675781 C 238.894531 110.496094 239.488281 110.347656 240.09375 110.230469 C 240.695312 110.109375 241.300781 110.019531 241.914062 109.957031 C 242.523438 109.898438 243.136719 109.867188 243.75 109.867188 C 244.363281 109.867188 244.976562 109.898438 245.585938 109.957031 C 246.199219 110.019531 246.804688 110.109375 247.40625 110.230469 C 248.011719 110.347656 248.605469 110.496094 249.191406 110.675781 C 249.78125 110.855469 250.359375 111.0625 250.925781 111.296875 C 251.492188 111.53125 252.046875 111.792969 252.589844 112.082031 C 253.128906 112.371094 253.65625 112.6875 254.167969 113.027344 C 254.675781 113.371094 255.171875 113.734375 255.644531 114.125 C 256.121094 114.515625 256.574219 114.925781 257.007812 115.359375 C 257.441406 115.792969 257.855469 116.25 258.242188 116.722656 C 258.632812 117.199219 259 117.691406 259.339844 118.203125 C 259.679688 118.710938 259.996094 119.238281 260.285156 119.78125 C 260.574219 120.320312 260.835938 120.875 261.074219 121.441406 C 261.308594 122.011719 261.515625 122.589844 261.691406 123.175781 C 261.871094 123.761719 262.019531 124.359375 262.140625 124.960938 C 262.257812 125.5625 262.347656 126.167969 262.410156 126.78125 C 262.46875 127.390625 262.5 128.003906 262.5 128.617188 Z M 262.5 128.617188 " fill-opacity="1" fill-rule="nonzero"/></g></svg>