<svg xmlns="http://www.w3.org/2000/svg" xmlns:xlink="http://www.w3.org/1999/xlink" width="500" zoomAndPan="magnify" viewBox="0 0 375 374.999991" height="500" preserveAspectRatio="xMidYMid meet" version="1.0"><defs><clipPath id="id1"><path d="M 90 124 L 311.238281 124 L 311.238281 373.324219 L 90 373.324219 Z M 90 124 " clip-rule="nonzero"/></clipPath><clipPath id="id2"><path d="M 46.488281 1.675781 L 311.238281 1.675781 L 311.238281 130 L 46.488281 130 Z M 46.488281 1.675781 " clip-rule="nonzero"/></clipPath></defs><g clip-path="url(#id1)"><path fill="#ff5757" d="M 285.671875 360.488281 L 116.269531 360.125 L 103.417969 137.8125 L 298.523438 137.414062 Z M 298.523438 124.941406 L 103.417969 124.941406 C 96.316406 124.941406 90.53125 130.71875 90.566406 138.175781 L 103.417969 360.488281 C 103.417969 367.546875 109.167969 373.324219 116.269531 373.324219 L 285.671875 373.324219 C 292.777344 373.324219 298.523438 367.546875 298.523438 360.851562 L 311.378906 137.8125 C 311.410156 130.71875 305.628906 124.941406 298.523438 124.941406 " fill-opacity="1" fill-rule="nonzero"/></g><g clip-path="url(#id2)"><path fill="#ff5757" d="M 290.035156 21.109375 L 296.90625 42.523438 L 67.832031 115.472656 L 60.992188 94.0625 Z M 202.277344 14.511719 L 208.390625 33.617188 L 134.839844 57.042969 L 128.726562 37.90625 Z M 47.214844 86.933594 C 46.421875 88.453125 46.289062 90.234375 46.785156 91.851562 L 57.523438 125.503906 C 58.417969 128.210938 60.960938 129.957031 63.671875 129.957031 C 64.332031 129.957031 64.992188 129.859375 65.621094 129.660156 L 306.917969 52.785156 C 308.535156 52.289062 309.890625 51.136719 310.683594 49.617188 C 311.476562 48.101562 311.609375 46.351562 311.113281 44.734375 L 300.34375 11.082031 C 299.25 7.683594 295.648438 5.835938 292.246094 6.890625 L 220.648438 29.722656 L 214.535156 10.585938 C 212.421875 3.988281 205.050781 0.125 198.34375 2.269531 L 124.828125 25.695312 C 121.558594 26.71875 118.882812 28.964844 117.296875 32.03125 C 115.710938 35.101562 115.445312 38.566406 116.46875 41.832031 L 122.582031 60.96875 L 50.984375 83.765625 C 49.332031 84.292969 47.976562 85.417969 47.214844 86.933594 " fill-opacity="1" fill-rule="nonzero"/></g><path fill="#ff5757" d="M 148.71875 335.3125 C 152.253906 335.3125 155.128906 332.441406 155.128906 328.878906 L 155.128906 170.738281 C 155.128906 167.175781 152.253906 164.304688 148.71875 164.304688 C 145.148438 164.304688 142.273438 167.175781 142.273438 170.738281 L 142.273438 328.878906 C 142.273438 332.441406 145.148438 335.3125 148.71875 335.3125 " fill-opacity="1" fill-rule="nonzero"/><path fill="#ff5757" d="M 200.988281 335.3125 C 204.523438 335.3125 207.398438 332.441406 207.398438 328.878906 L 207.398438 170.738281 C 207.398438 167.175781 204.523438 164.304688 200.988281 164.304688 C 197.417969 164.304688 194.546875 167.175781 194.546875 170.738281 L 194.546875 328.878906 C 194.546875 332.441406 197.417969 335.3125 200.988281 335.3125 " fill-opacity="1" fill-rule="nonzero"/><path fill="#ff5757" d="M 253.226562 335.3125 C 256.792969 335.3125 259.667969 332.441406 259.667969 328.878906 L 259.667969 170.738281 C 259.667969 167.175781 256.792969 164.304688 253.226562 164.304688 C 249.691406 164.304688 246.816406 167.175781 246.816406 170.738281 L 246.816406 328.878906 C 246.816406 332.441406 249.691406 335.3125 253.226562 335.3125 " fill-opacity="1" fill-rule="nonzero"/></svg>